<svg width="2336" height="513" viewBox="0 0 2336 513" fill="none" xmlns="http://www.w3.org/2000/svg">
<path d="M1463.15 45.3693C1396.27 89.9763 1308.69 144.939 1245.8 184.766C1231.47 179.987 1216.34 172.818 1212.36 160.87C1211.56 159.276 1210.77 158.48 1208.38 158.48C1206.79 147.328 1203.6 136.973 1199.62 125.821C1164.59 27.8451 1057.11 -23.1344 959.182 11.914C865.236 45.3693 814.282 145.735 841.351 240.525H840.555L879.567 350.449C880.363 367.177 881.955 388.684 885.936 410.988C908.228 434.088 932.909 454.798 960.775 471.526C958.386 440.46 951.221 417.36 949.629 412.581C952.017 417.36 962.367 439.664 988.64 430.105C983.067 413.377 973.513 387.888 952.017 361.601C956.794 366.381 961.571 371.16 966.348 375.939C977.494 326.553 1007.75 286.725 1052.33 270.794C1128.76 243.711 1217.93 297.877 1251.37 392.667C1265.7 434.088 1267.29 475.508 1258.54 512.15C1271.28 508.964 1283.22 504.184 1295.16 499.405C1289.59 496.219 1283.22 494.626 1277.64 493.829C1319.04 432.495 1295.96 318.587 1295.96 318.587L1291.18 285.132C1263.31 277.963 1231.47 267.608 1203.6 254.863C1272.07 273.98 1322.23 255.66 1350.1 246.101C1342.13 223.001 1323.03 221.408 1312.68 223.001C1339.75 215.832 1446.43 179.987 1463.15 45.3693ZM963.959 250.084C931.317 262.032 895.49 244.508 883.548 211.849C871.605 179.19 889.121 143.345 921.763 131.397C954.405 119.449 990.233 136.973 1002.17 169.632C1013.32 202.29 996.602 238.135 963.959 250.084ZM1045.17 263.625L1009.34 238.135L1060.29 219.815L1045.17 263.625ZM1105.68 199.104C1073.03 211.052 1037.21 193.528 1025.26 160.87C1013.32 128.211 1030.84 92.366 1063.48 80.4177C1096.12 68.4694 1131.95 85.9935 1143.89 118.652C1155.04 152.108 1138.32 187.952 1105.68 199.104Z" fill="#DB2777"/>
<path d="M953.61 220.61C965.043 220.61 974.31 211.338 974.31 199.9C974.31 188.462 965.043 179.189 953.61 179.189C942.178 179.189 932.91 188.462 932.91 199.9C932.91 211.338 942.178 220.61 953.61 220.61Z" fill="#DB2777"/>
<path d="M1077.01 176.8C1088.44 176.8 1097.71 167.527 1097.71 156.089C1097.71 144.651 1088.44 135.379 1077.01 135.379C1065.58 135.379 1056.31 144.651 1056.31 156.089C1056.31 167.527 1065.58 176.8 1077.01 176.8Z" fill="#DB2777"/>
<path d="M1446.26 343.649L1427.46 336.849L1562.66 171.249H1635.46L1440.26 398.849H1379.46V232.233C1379.46 232.233 1400.99 223.372 1414.22 212.125C1427.46 200.878 1446.26 175.658 1446.26 175.658V343.649ZM1497.86 287.249L1547.06 249.249L1641.86 398.849H1565.46L1497.86 287.249Z" fill="#DB2777"/>
<path d="M1862.47 398.849L1852.87 315.649L1863.67 285.249L1852.87 255.249L1862.47 171.249H1931.67L1918.47 285.249L1931.67 398.849H1862.47ZM1880.07 285.249C1875.8 309.249 1867.94 330.316 1856.47 348.449C1845.27 366.316 1831 380.182 1813.67 390.049C1796.6 399.916 1777.4 404.849 1756.07 404.849C1733.94 404.849 1714.34 399.916 1697.27 390.049C1680.2 379.916 1666.87 365.915 1657.27 348.049C1647.94 329.915 1643.27 308.982 1643.27 285.249C1643.27 261.249 1647.94 240.316 1657.27 222.449C1666.87 204.316 1680.2 190.316 1697.27 180.449C1714.34 170.315 1733.94 165.249 1756.07 165.249C1777.4 165.249 1796.6 170.182 1813.67 180.049C1831 189.915 1845.4 203.915 1856.87 222.049C1868.34 239.915 1876.07 260.982 1880.07 285.249ZM1710.87 285.249C1710.87 298.582 1713.54 310.316 1718.87 320.449C1724.47 330.582 1732.07 338.582 1741.67 344.449C1751.27 350.049 1762.34 352.849 1774.87 352.849C1787.4 352.849 1799.14 350.049 1810.07 344.449C1821.27 338.582 1831.14 330.582 1839.67 320.449C1848.2 310.316 1854.87 298.582 1859.67 285.249C1854.87 271.916 1848.2 260.182 1839.67 250.049C1831.14 239.649 1821.27 231.649 1810.07 226.049C1799.14 220.182 1787.4 217.249 1774.87 217.249C1762.34 217.249 1751.27 220.182 1741.67 226.049C1732.07 231.649 1724.47 239.649 1718.87 250.049C1713.54 260.182 1710.87 271.916 1710.87 285.249Z" fill="#DB2777"/>
<path d="M2043.14 343.649L2024.34 336.849L2159.54 171.249H2232.34L2037.14 398.849H1976.34V90.8488H2043.14V343.649ZM2094.74 287.249L2143.94 249.249L2238.74 398.849H2162.34L2094.74 287.249Z" fill="#DB2777"/>
<path d="M2261.88 168.849L2295.08 175.249L2328.68 168.849V398.849H2261.88V168.849ZM2295.08 145.249C2283.08 145.249 2273.22 142.182 2265.48 136.049C2258.02 129.649 2254.28 121.249 2254.28 110.849C2254.28 100.182 2258.02 91.7822 2265.48 85.6488C2273.22 79.2488 2283.08 76.0488 2295.08 76.0488C2307.35 76.0488 2317.22 79.2488 2324.68 85.6488C2332.15 91.7822 2335.88 100.182 2335.88 110.849C2335.88 121.249 2332.15 129.649 2324.68 136.049C2317.22 142.182 2307.35 145.249 2295.08 145.249Z" fill="#DB2777"/>
<path d="M214.117 342.449V302.849L216.517 294.449V244.849L214.117 236.449V171.249H280.917V338.049C280.917 366.849 274.517 391.116 261.717 410.849C249.184 430.582 231.717 445.516 209.317 455.649C186.917 465.782 160.917 470.849 131.317 470.849C110.517 470.849 91.3172 468.182 73.7172 462.849C56.3839 457.516 39.3172 449.382 22.5172 438.449V386.049C38.7839 398.582 55.7172 407.516 73.3172 412.849C91.1839 418.182 109.184 420.849 127.317 420.849C155.317 420.849 176.784 414.316 191.717 401.249C206.651 388.182 214.117 368.582 214.117 342.449ZM110.517 378.049C89.4505 378.049 70.5172 373.649 53.7172 364.849C37.1839 356.049 24.1172 343.649 14.5172 327.649C4.91719 311.649 0.117188 292.982 0.117188 271.649C0.117188 250.315 4.91719 231.782 14.5172 216.049C24.1172 200.049 37.1839 187.649 53.7172 178.849C70.5172 169.782 89.4505 165.249 110.517 165.249C126.517 165.249 141.051 167.782 154.117 172.849C167.451 177.649 179.317 184.049 189.717 192.049C200.384 200.049 209.317 208.849 216.517 218.449C223.717 227.782 229.184 237.249 232.917 246.849C236.917 256.182 238.917 264.716 238.917 272.449C238.917 282.316 235.851 293.382 229.717 305.649C223.851 317.916 215.317 329.516 204.117 340.449C192.917 351.382 179.451 360.449 163.717 367.649C147.984 374.582 130.251 378.049 110.517 378.049ZM132.517 330.849C149.851 330.849 165.451 326.182 179.317 316.849C193.451 307.249 205.851 292.182 216.517 271.649C205.851 250.849 193.451 235.782 179.317 226.449C165.184 216.849 149.584 212.049 132.517 212.049C118.917 212.049 107.184 214.582 97.3172 219.649C87.7172 224.449 80.2505 231.382 74.9172 240.449C69.8505 249.249 67.3172 259.649 67.3172 271.649C67.3172 283.382 69.8505 293.782 74.9172 302.849C79.9839 311.649 87.4505 318.582 97.3172 323.649C107.184 328.449 118.917 330.849 132.517 330.849Z" fill="#DB2777"/>
<path d="M330.077 168.849L363.277 175.249L396.877 168.849V398.849H330.077V168.849ZM363.277 145.249C351.277 145.249 341.41 142.182 333.677 136.049C326.21 129.649 322.477 121.249 322.477 110.849C322.477 100.182 326.21 91.7822 333.677 85.6488C341.41 79.2488 351.277 76.0488 363.277 76.0488C375.543 76.0488 385.41 79.2488 392.877 85.6488C400.343 91.7822 404.077 100.182 404.077 110.849C404.077 121.249 400.343 129.649 392.877 136.049C385.41 142.182 375.543 145.249 363.277 145.249Z" fill="#DB2777"/>
<path d="M593.264 132.849C576.464 132.849 564.064 135.916 556.064 142.049C548.064 148.182 544.064 158.449 544.064 172.849V398.849H477.264V184.849C477.264 164.049 481.264 146.182 489.264 131.249C497.264 116.316 509.264 104.849 525.264 96.8488C541.264 88.8488 561.397 84.8488 585.664 84.8488C596.064 84.8488 605.397 85.7822 613.664 87.6488C621.931 89.2488 630.064 91.5155 638.064 94.4488V140.049C631.131 137.649 624.064 135.916 616.864 134.849C609.664 133.516 601.797 132.849 593.264 132.849ZM430.064 234.849V183.249H635.664V234.849H430.064ZM613.264 234.849V183.249H661.664L689.264 116.449H727.264V181.249H801.264C801.264 181.249 799.846 194.752 801.264 206.661C802.682 218.569 806.173 232.449 806.173 232.449H727.264V302.849C727.264 320.716 730.997 333.249 738.464 340.449C745.931 347.649 758.731 351.249 776.864 351.249C788.331 351.249 798.464 350.049 807.264 347.649C816.331 345.249 824.597 342.049 832.064 338.049L832.464 390.049C824.731 393.516 814.331 396.716 801.264 399.649C788.464 402.849 775.264 404.449 761.664 404.449C738.197 404.449 718.997 400.716 704.064 393.249C689.131 385.516 678.064 374.849 670.864 361.249C663.931 347.382 660.464 331.382 660.464 313.249V234.849H613.264Z" fill="#DB2777"/>
</svg>
