<svg width="78" height="63" viewBox="0 0 78 63" fill="none" xmlns="http://www.w3.org/2000/svg">
<g clip-path="url(#clip0_1780_2062)">
<path d="M77.904 5.56394C69.624 11.0527 58.7812 17.8156 50.994 22.7163C49.2197 22.1283 47.3469 21.2461 46.854 19.7758C46.7554 19.5798 46.6569 19.4819 46.3611 19.4819C46.164 18.1097 45.7696 16.8355 45.2769 15.4633C40.9397 3.40764 27.6325 -2.86521 15.5082 1.44737C3.87672 5.56394 -2.43187 17.9137 0.919571 29.5773H0.821L5.65101 43.1031C5.74959 45.1614 5.94673 47.8078 6.43959 50.5521C9.19959 53.3945 12.2553 55.9429 15.7053 58.0012C15.4096 54.1786 14.5225 51.3363 14.3254 50.7482C14.621 51.3363 15.9025 54.0806 19.1553 52.9045C18.4653 50.8462 17.2824 47.7097 14.621 44.4753C15.2125 45.0633 15.8039 45.6515 16.3953 46.2395C17.7753 40.1627 21.5211 35.262 27.0411 33.3018C36.504 29.9693 47.544 36.6342 51.684 48.2979C53.4583 53.3945 53.6554 58.4912 52.5711 62.9999C54.1483 62.6078 55.6269 62.0197 57.1054 61.4316C56.4154 61.0396 55.6269 60.8436 54.9369 60.7455C60.0626 53.1985 57.2041 39.1826 57.2041 39.1826L56.6126 35.066C53.1626 34.1839 49.2197 32.9097 45.7696 31.3415C54.2469 33.6938 60.4569 31.4395 63.9069 30.2634C62.9212 27.421 60.5555 27.225 59.274 27.421C62.6254 26.5389 75.8341 22.1283 77.904 5.56394ZM16.0996 30.7535C12.0582 32.2236 7.62244 30.0674 6.14387 26.0488C4.6653 22.0302 6.83388 17.6196 10.8753 16.1494C14.9168 14.6792 19.3525 16.8355 20.8311 20.8541C22.211 24.8726 20.1411 29.2832 16.0996 30.7535ZM26.1539 32.4196L21.7182 29.2832L28.0268 27.0288L26.1539 32.4196ZM33.6454 24.4805C29.604 25.9507 25.1682 23.7944 23.6896 19.7758C22.211 15.7574 24.3797 11.3467 28.4211 9.87654C32.4625 8.40634 36.8982 10.5626 38.3769 14.5812C39.7568 18.6977 37.6869 23.1083 33.6454 24.4805Z" fill="#DB2777"/>
<path d="M14.8167 27.1241C16.2322 27.1241 17.3796 25.9832 17.3796 24.5758C17.3796 23.1684 16.2322 22.0273 14.8167 22.0273C13.4013 22.0273 12.2539 23.1684 12.2539 24.5758C12.2539 25.9832 13.4013 27.1241 14.8167 27.1241Z" fill="#DB2777"/>
<path d="M30.098 21.7334C31.5134 21.7334 32.6609 20.5924 32.6609 19.185C32.6609 17.7776 31.5134 16.6367 30.098 16.6367C28.6825 16.6367 27.5352 17.7776 27.5352 19.185C27.5352 20.5924 28.6825 21.7334 30.098 21.7334Z" fill="#DB2777"/>
</g>
<defs>
<clipPath id="clip0_1780_2062">
<rect width="78" height="63" fill="white"/>
</clipPath>
</defs>
</svg>
