<svg width="630" height="512" viewBox="0 0 630 512" fill="none" xmlns="http://www.w3.org/2000/svg">
<path d="M629.227 45.2091C562.35 89.8161 474.773 144.778 411.877 184.606C397.546 179.827 382.419 172.658 378.438 160.709C377.642 159.116 376.846 158.32 374.457 158.32C372.865 147.168 369.68 136.813 365.7 125.661C330.669 27.6849 223.188 -23.2945 125.261 11.7538C31.3141 45.2091 -19.6399 145.575 7.42941 240.365H6.63326L45.6449 350.289C46.4411 367.017 48.0334 388.524 52.0142 410.827C74.3065 433.927 98.9874 454.638 126.853 471.366C124.464 440.3 117.299 417.2 115.707 412.421C118.095 417.2 128.445 439.503 154.718 429.945C149.145 413.217 139.591 387.727 118.095 361.441C122.872 366.22 127.649 371 132.426 375.779C143.572 326.393 173.826 286.565 218.411 270.634C294.842 243.551 384.011 297.717 417.45 392.507C431.781 433.927 433.373 475.348 424.615 511.99C437.354 508.804 449.296 504.024 461.238 499.245C455.665 496.059 449.296 494.466 443.723 493.669C485.123 432.334 462.035 318.427 462.035 318.427L457.258 284.972C429.392 277.803 397.546 267.448 369.68 254.703C438.15 273.82 488.308 255.499 516.173 245.941C508.212 222.841 489.104 221.248 478.754 222.841C505.823 215.672 612.508 179.827 629.227 45.2091ZM130.037 249.924C97.3951 261.872 61.568 244.348 49.6257 211.689C37.6834 179.03 55.1988 143.185 87.8412 131.237C120.484 119.289 156.311 136.813 168.253 169.472C179.399 202.13 162.68 237.975 130.037 249.924ZM211.245 263.465L175.418 237.975L226.372 219.654L211.245 263.465ZM271.753 198.944C239.111 210.892 203.284 193.368 191.341 160.709C179.399 128.051 196.915 92.2058 229.557 80.2575C262.199 68.3092 298.026 85.8334 309.969 118.492C321.115 151.947 304.396 187.792 271.753 198.944Z" fill="#DB2777"/>
<path d="M119.688 220.45C131.121 220.45 140.388 211.178 140.388 199.74C140.388 188.302 131.121 179.029 119.688 179.029C108.256 179.029 98.9883 188.302 98.9883 199.74C98.9883 211.178 108.256 220.45 119.688 220.45Z" fill="#DB2777"/>
<path d="M243.091 176.64C254.523 176.64 263.791 167.367 263.791 155.929C263.791 144.491 254.523 135.219 243.091 135.219C231.658 135.219 222.391 144.491 222.391 155.929C222.391 167.367 231.658 176.64 243.091 176.64Z" fill="#DB2777"/>
</svg>
